<svg xmlns="http://www.w3.org/2000/svg" width="240" height="240" viewBox="0 0 120 120" class="ch ch-gomi ch-cheer"><ellipse cx="60" cy="116" rx="30" ry="4" fill="#000" opacity=".12"/><g class="ch-bob">
      <path class="ch-tail" d="M84 104c24 5 28-20 15-27" fill="none" stroke="#8a5a3b" stroke-width="7" stroke-linecap="round"/>
      <ellipse cx="47" cy="112" rx="10" ry="5" fill="#f6d2ad"/><ellipse cx="73" cy="112" rx="10" ry="5" fill="#f6d2ad"/>
      <ellipse cx="25" cy="70" rx="8" ry="14" transform="rotate(-32 25 70)" fill="#8a5a3b"/><ellipse cx="95" cy="70" rx="8" ry="14" transform="rotate(32 95 70)" fill="#8a5a3b"/>
         <circle cx="17" cy="58" r="7" fill="#f6d2ad"/><circle cx="103" cy="58" r="7" fill="#f6d2ad"/>
      <path d="M34 93q0-13 13-13h26q13 0 13 13v13q0 6-6 6H40q-6 0-6-6z" fill="#1cb0f6"/>
      <path d="M34 104h52v2q0 6-6 6H40q-6 0-6-6z" fill="#1899d6"/>
      <path d="M60 89v14M53 96h14" stroke="#fff" stroke-width="3.400" stroke-linecap="round"/>
      <path d="M55 20q1-11 10-10" fill="none" stroke="#8a5a3b" stroke-width="5" stroke-linecap="round"/>
      <circle cx="27" cy="50" r="12" fill="#8a5a3b"/><circle cx="93" cy="50" r="12" fill="#8a5a3b"/>
      <circle cx="27" cy="50" r="7" fill="#e9a97f"/><circle cx="93" cy="50" r="7" fill="#e9a97f"/>
      <circle cx="60" cy="50" r="33" fill="#8a5a3b"/>
      <circle cx="49" cy="53" r="17" fill="#f6d2ad"/><circle cx="71" cy="53" r="17" fill="#f6d2ad"/><ellipse cx="60" cy="68" rx="21" ry="15" fill="#f6d2ad"/>
      <ellipse cx="60" cy="71" rx="13" ry="9" fill="#ffe6cf"/>
      <circle cx="38" cy="66" r="4.500" fill="#ff9aa8" opacity=".5"/><circle cx="82" cy="66" r="4.500" fill="#ff9aa8" opacity=".5"/>
      <path d="M43 51q6-8 12 0M65 51q6-8 12 0" fill="none" stroke="#2b1d14" stroke-width="3.600" stroke-linecap="round"/>
      <circle cx="56" cy="66" r="1.600" fill="#2b1d14"/><circle cx="64" cy="66" r="1.600" fill="#2b1d14"/>
      <path d="M47 72q13 20 26 0z" fill="#2b1d14"/><path d="M53 81q7-5 14 0q-7 5-14 0z" fill="#ff7a8a"/>
    </g></svg>
